<svg width="198" height="203" viewBox="0 0 198 203" fill="none" xmlns="http://www.w3.org/2000/svg">
<ellipse cx="99" cy="101.5" rx="99" ry="101.5" fill="#2A45C2"/>
<ellipse cx="99" cy="97" rx="99" ry="97" fill="#4664F4"/>
<ellipse cx="99" cy="97" rx="99" ry="97" fill="url(#paint0_linear_0_1767)"/>
<circle cx="99" cy="99" r="76" fill="#BABFD4"/>
<ellipse cx="99" cy="103" rx="76" ry="72" fill="url(#paint1_linear_0_1767)"/>
<path d="M128.529 79.3231C127.969 79.1082 127.386 79.015 126.847 79.0526C126.07 79.107 125.442 79.4242 125.07 79.9433C122.878 83.0268 121.083 88.8501 119.636 93.529C118.972 95.6928 118.08 98.5885 117.434 99.9628C116.761 96.1125 117.522 82.008 117.817 76.5762L117.821 76.4885C118.026 72.7148 118.054 72.053 118.009 71.7624C117.684 69.6923 116.858 68.3335 115.553 67.7253C114.234 67.1085 112.521 67.3814 110.675 68.4968C109.75 69.0588 109.494 70.9878 108.7 79.7314L108.697 79.7699C108.26 84.5735 107.254 95.634 106.015 97.476C104.617 94.8989 102.695 80.2565 101.865 73.9186C101.284 69.4799 100.946 66.9312 100.719 66.1616C100.24 64.549 98.2189 63.1767 96.2179 63.1007C94.5524 63.0177 93.1858 63.8687 92.5336 65.3473C91.3134 66.7112 91.7445 71.2343 93.0932 81.9469C93.7352 87.0452 95.0604 97.5765 94.2264 98.7578C92.5635 98.5762 89.7088 91.9796 85.7404 79.1456C84.6271 75.5514 84.2825 74.4703 83.9405 73.9971C83.2664 72.3489 80.9755 71.0776 78.9214 71.2212C78.746 71.2335 78.5755 71.2564 78.407 71.2886C77.3318 71.5031 74.8783 72.4972 75.4013 77.0847C76.8501 83.4449 78.4238 88.1147 79.9511 92.6472L79.982 92.7379C80.8958 95.4527 81.7597 98.0178 82.5624 100.865C84.4545 107.586 83.7188 111.756 83.7098 111.803C83.6469 112.232 83.515 112.494 83.3165 112.586C83.2451 112.62 83.1536 112.64 83.0504 112.647C82.4508 112.689 81.5514 112.29 81.0879 112.03C80.0292 109.998 74.7576 100.311 69.9809 98.967L69.8093 98.9162L69.6356 98.9324C67.8837 99.0986 66.5955 99.7637 65.8082 100.909C64.5606 102.72 65.077 105.027 65.2023 105.489L65.2727 105.655C65.3117 105.725 69.1424 112.74 69.7352 116.003C70.2465 118.8 72.8915 121.832 75.018 124.268L75.1056 124.367C75.7993 125.164 76.398 125.853 76.8701 126.491C83.0405 132.955 92.7988 138.393 92.8784 138.437C94.0959 139.339 94.7729 140.211 94.8444 140.962C94.8897 141.453 94.6356 141.747 94.6268 141.757L94.4143 141.979L95.7631 143.296L121.508 141.48L122.606 136.428C126 122.159 125.291 109.994 125.28 109.912C125.292 109.465 126.244 105.136 127.009 101.639L127.031 101.55C128.556 94.5828 130.453 85.9137 130.816 82.6166C130.975 81.2068 130.077 79.9116 128.529 79.3231Z" fill="#3B4262"/>
<defs>
<linearGradient id="paint0_linear_0_1767" x1="0" y1="0" x2="0" y2="194" gradientUnits="userSpaceOnUse">
<stop stop-color="white" stop-opacity="0.0966455"/>
<stop offset="1" stop-color="white" stop-opacity="0.01"/>
</linearGradient>
<linearGradient id="paint1_linear_0_1767" x1="173.74" y1="175" x2="173.74" y2="33.3868" gradientUnits="userSpaceOnUse">
<stop stop-color="#F3F3F3"/>
<stop offset="1" stop-color="#DADADA"/>
</linearGradient>
</defs>
</svg>
