<svg width="198" height="203" viewBox="0 0 198 203" fill="none" xmlns="http://www.w3.org/2000/svg">
<ellipse cx="99" cy="101.5" rx="99" ry="101.5" fill="#C76C1B"/>
<ellipse cx="99" cy="97" rx="99" ry="97" fill="#EB9F0E"/>
<ellipse cx="99" cy="97" rx="99" ry="97" fill="url(#paint0_linear_0_1777)"/>
<circle cx="99" cy="99" r="76" fill="#BABFD4"/>
<ellipse cx="99" cy="103" rx="76" ry="72" fill="url(#paint1_linear_0_1777)"/>
<path d="M79.16 98.3494L87.3694 86.8064C83.9571 86.2376 77.6911 86.1115 72.5584 91.2442C64.4677 99.3349 61.191 116.813 60.5079 121.044L81.0706 141.606C84.7723 141.289 101.162 139.101 116.954 123.309C117.122 122.968 120.968 120.125 117.823 116.98C116.322 115.479 113.837 115.507 112.303 117.041C111.523 117.822 110.308 117.833 109.544 117.069C108.779 116.304 108.79 115.09 109.571 114.309L115.152 108.728C117.987 105.892 115.314 101.108 111.356 102.258L106.788 106.169C105.953 106.896 104.713 106.77 104.028 105.977C103.319 105.157 103.47 103.915 104.277 103.215C120.235 89.2135 117.906 90.8998 128.173 81.2763C132.009 78.0824 127.183 72.4328 123.403 75.6675L98.5657 98.0027C97.8432 98.6181 96.7357 98.6297 96.0247 97.9746C95.2041 97.266 95.1853 96.245 95.7217 95.4384L113.046 68.5052C115.579 65.0757 110.595 61.2668 107.927 64.7242L82.3117 100.55C81.6939 101.443 80.4491 101.648 79.6006 101.023C78.7497 100.452 78.5167 99.2119 79.16 98.3494Z" fill="#3B4262"/>
<defs>
<linearGradient id="paint0_linear_0_1777" x1="0" y1="0" x2="0" y2="194" gradientUnits="userSpaceOnUse">
<stop stop-color="white" stop-opacity="0.0966455"/>
<stop offset="1" stop-color="white" stop-opacity="0.01"/>
</linearGradient>
<linearGradient id="paint1_linear_0_1777" x1="173.74" y1="175" x2="173.74" y2="33.3868" gradientUnits="userSpaceOnUse">
<stop stop-color="#F3F3F3"/>
<stop offset="1" stop-color="#DADADA"/>
</linearGradient>
</defs>
</svg>
